<svg width="166" height="50" viewBox="0 0 166 50" fill="none" xmlns="http://www.w3.org/2000/svg">
<path d="M70.1278 19.307V30.2077C70.1278 34.1392 68.2812 36.1049 64.5881 36.1049H59.5397C55.8466 36.1049 54 34.1392 54 30.2077V19.307C54 15.3755 55.8466 13.4098 59.5397 13.4098H64.5881C68.2812 13.4098 70.1278 15.3755 70.1278 19.307ZM64.1413 31.4587V18.0114C64.1413 17.7731 64.052 17.5646 63.8733 17.3859C63.7243 17.2072 63.5307 17.1179 63.2925 17.1179H60.8353C60.5971 17.1179 60.3886 17.2072 60.2099 17.3859C60.061 17.5646 59.9865 17.7731 59.9865 18.0114V31.4587C59.9865 31.6969 60.061 31.9054 60.2099 32.0841C60.3886 32.2628 60.5971 32.3522 60.8353 32.3522H63.2925C63.5307 32.3522 63.7243 32.2628 63.8733 32.0841C64.052 31.9054 64.1413 31.6969 64.1413 31.4587Z" fill="#384B67"/>
<path d="M82.1521 32.2181H83.9391V36.1049H79.7396C76.0465 36.1049 74.1999 34.1392 74.1999 30.2077V9.12097H80.1864V13.8566H83.9391V18.1901H80.1864V30.0737C80.1864 30.9077 80.3502 31.4735 80.6778 31.7714C81.0054 32.0692 81.4969 32.2181 82.1521 32.2181Z" fill="#384B67"/>
<path d="M97.1222 13.8566H102.93L98.1497 35.6581H90.2422L85.4619 13.8566H91.2697L94.2183 30.7885L97.1222 13.8566Z" fill="#384B67"/>
<path d="M116.113 13.4098C119.806 13.4098 121.653 15.3755 121.653 19.307V26.3657H111.511V30.9225C111.511 31.1608 111.586 31.3693 111.735 31.548C111.914 31.7267 112.122 31.8161 112.36 31.8161H114.817C115.056 31.8161 115.249 31.7267 115.398 31.548C115.577 31.3693 115.666 31.1608 115.666 30.9225V28.5101H121.653V30.2077C121.653 34.1392 119.806 36.1049 116.113 36.1049H111.065C107.372 36.1049 105.525 34.1392 105.525 30.2077V19.307C105.525 15.3755 107.372 13.4098 111.065 13.4098H116.113ZM111.511 22.4342H115.666V18.4134C115.666 18.1752 115.577 17.9667 115.398 17.788C115.249 17.6093 115.056 17.5199 114.817 17.5199H112.36C112.122 17.5199 111.914 17.6093 111.735 17.788C111.586 17.9667 111.511 18.1752 111.511 18.4134V22.4342Z" fill="#384B67"/>
<path d="M132.892 32.2181H134.679V36.1049H130.479C126.786 36.1049 124.94 34.1392 124.94 30.2077V9.12097H130.926V13.8566H134.679V18.1901H130.926V30.0737C130.926 30.9077 131.09 31.4735 131.418 31.7714C131.745 32.0692 132.237 32.2181 132.892 32.2181Z" fill="#384B67"/>
<path d="M149.47 13.8566H154.518V35.6582H149.47V34.0499C148.546 35.4199 147.013 36.1049 144.868 36.1049H143.93C140.237 36.1049 138.39 34.1392 138.39 30.2078V19.307C138.39 15.3756 140.237 13.4099 143.93 13.4099H144.868C147.013 13.4099 148.546 14.0949 149.47 15.4649V13.8566ZM148.532 30.9226V18.5922C148.532 18.3539 148.442 18.1454 148.264 17.9667C148.115 17.788 147.921 17.6987 147.683 17.6987H145.226C144.987 17.6987 144.779 17.788 144.6 17.9667C144.451 18.1454 144.377 18.3539 144.377 18.5922V30.9226C144.377 31.1609 144.451 31.3694 144.6 31.5481C144.779 31.7268 144.987 31.8161 145.226 31.8161H147.683C147.921 31.8161 148.115 31.7268 148.264 31.5481C148.442 31.3694 148.532 31.1609 148.532 30.9226Z" fill="#616AFF"/>
<path d="M164.666 11.1314C164.041 11.7569 163.281 12.0696 162.388 12.0696C161.494 12.0696 160.72 11.7569 160.064 11.1314C159.409 10.4762 159.082 9.7018 159.082 8.8083C159.082 7.885 159.409 7.11063 160.064 6.48518C160.72 5.82994 161.494 5.50232 162.388 5.50232C163.281 5.50232 164.041 5.82994 164.666 6.48518C165.321 7.11063 165.649 7.885 165.649 8.8083C165.649 9.73159 165.321 10.506 164.666 11.1314ZM159.394 35.6582V13.8566H165.381V35.6582H159.394Z" fill="#616AFF"/>
<path d="M21.8621 0C33.5553 0 44 9.4959 44 21.2097C44 29.661 39.9808 38.1356 21.931 50V42.2812C34.6207 29.2373 34.6207 26.1072 34.6207 19.6207C34.6207 13.1342 28.4061 7.87591 21.931 7.87591C15.456 7.87591 9.51724 13.1342 9.51724 19.6207C9.51724 26.061 15.3816 32.1379 21.7931 32.212V42.4188C10.1316 42.3816 0 32.9005 0 21.2097C0 9.4959 10.1689 0 21.8621 0Z" fill="#616AFF"/>
</svg>
