<svg width="166" height="50" viewBox="0 0 166 50" fill="none" xmlns="http://www.w3.org/2000/svg">
<path d="M70.1278 19.3071V30.2079C70.1278 34.1393 68.2812 36.105 64.5881 36.105H59.5397C55.8466 36.105 54 34.1393 54 30.2079V19.3071C54 15.3756 55.8466 13.4099 59.5397 13.4099H64.5881C68.2812 13.4099 70.1278 15.3756 70.1278 19.3071ZM64.1413 31.4588V18.0115C64.1413 17.7732 64.052 17.5647 63.8733 17.386C63.7243 17.2073 63.5307 17.118 63.2925 17.118H60.8353C60.5971 17.118 60.3886 17.2073 60.2099 17.386C60.061 17.5647 59.9865 17.7732 59.9865 18.0115V31.4588C59.9865 31.697 60.061 31.9055 60.2099 32.0842C60.3886 32.2629 60.5971 32.3523 60.8353 32.3523H63.2925C63.5307 32.3523 63.7243 32.2629 63.8733 32.0842C64.052 31.9055 64.1413 31.697 64.1413 31.4588Z" fill="white"/>
<path d="M82.1521 32.2183H83.9391V36.105H79.7396C76.0465 36.105 74.1999 34.1393 74.1999 30.2079V9.12109H80.1864V13.8567H83.9391V18.1902H80.1864V30.0738C80.1864 30.9078 80.3502 31.4737 80.6778 31.7715C81.0054 32.0693 81.4969 32.2183 82.1521 32.2183Z" fill="white"/>
<path d="M97.1222 13.8567H102.93L98.1497 35.6583H90.2422L85.4619 13.8567H91.2697L94.2183 30.7886L97.1222 13.8567Z" fill="white"/>
<path d="M116.113 13.4099C119.806 13.4099 121.653 15.3756 121.653 19.3071V26.3658H111.511V30.9227C111.511 31.1609 111.586 31.3694 111.735 31.5481C111.914 31.7268 112.122 31.8162 112.36 31.8162H114.817C115.056 31.8162 115.249 31.7268 115.398 31.5481C115.577 31.3694 115.666 31.1609 115.666 30.9227V28.5102H121.653V30.2079C121.653 34.1393 119.806 36.105 116.113 36.105H111.065C107.372 36.105 105.525 34.1393 105.525 30.2079V19.3071C105.525 15.3756 107.372 13.4099 111.065 13.4099H116.113ZM111.511 22.4344H115.666V18.4136C115.666 18.1753 115.577 17.9668 115.398 17.7881C115.249 17.6094 115.056 17.5201 114.817 17.5201H112.36C112.122 17.5201 111.914 17.6094 111.735 17.7881C111.586 17.9668 111.511 18.1753 111.511 18.4136V22.4344Z" fill="white"/>
<path d="M132.892 32.2183H134.679V36.105H130.479C126.786 36.105 124.94 34.1393 124.94 30.2079V9.12109H130.926V13.8567H134.679V18.1902H130.926V30.0738C130.926 30.9078 131.09 31.4737 131.418 31.7715C131.745 32.0693 132.237 32.2183 132.892 32.2183Z" fill="white"/>
<path d="M149.47 13.8562H154.518V35.6578H149.47V34.0495C148.546 35.4195 147.013 36.1046 144.868 36.1046H143.93C140.237 36.1046 138.39 34.1389 138.39 30.2074V19.3066C138.39 15.3752 140.237 13.4095 143.93 13.4095H144.868C147.013 13.4095 148.546 14.0945 149.47 15.4646V13.8562ZM148.532 30.9222V18.5918C148.532 18.3536 148.442 18.1451 148.264 17.9664C148.115 17.7877 147.921 17.6983 147.683 17.6983H145.226C144.987 17.6983 144.779 17.7877 144.6 17.9664C144.451 18.1451 144.377 18.3536 144.377 18.5918V30.9222C144.377 31.1605 144.451 31.369 144.6 31.5477C144.779 31.7264 144.987 31.8157 145.226 31.8157H147.683C147.921 31.8157 148.115 31.7264 148.264 31.5477C148.442 31.369 148.532 31.1605 148.532 30.9222Z" fill="#616AFF"/>
<path d="M164.666 11.131C164.041 11.7565 163.281 12.0692 162.388 12.0692C161.494 12.0692 160.72 11.7565 160.064 11.131C159.409 10.4758 159.082 9.70144 159.082 8.80793C159.082 7.88464 159.409 7.11026 160.064 6.48481C160.72 5.82957 161.494 5.50195 162.388 5.50195C163.281 5.50195 164.041 5.82957 164.666 6.48481C165.321 7.11026 165.649 7.88464 165.649 8.80793C165.649 9.73122 165.321 10.5056 164.666 11.131ZM159.394 35.6578V13.8562H165.381V35.6578H159.394Z" fill="#616AFF"/>
<path d="M21.8621 0C33.5553 0 44 9.4959 44 21.2097C44 29.661 39.9808 38.1356 21.931 50V42.2812C34.6207 29.2373 34.6207 26.1072 34.6207 19.6207C34.6207 13.1342 28.4061 7.87591 21.931 7.87591C15.456 7.87591 9.51724 13.1342 9.51724 19.6207C9.51724 26.061 15.3816 32.1379 21.7931 32.212V42.4188C10.1316 42.3816 0 32.9005 0 21.2097C0 9.4959 10.1689 0 21.8621 0Z" fill="#616AFF"/>
</svg>
