<svg width="321" height="96" viewBox="0 0 321 96" fill="none" xmlns="http://www.w3.org/2000/svg">
<path d="M125.306 40.197V60.0657C125.306 67.2314 121.94 70.8143 115.208 70.8143H106.007C99.2754 70.8143 95.9097 67.2314 95.9097 60.0657V40.197C95.9097 33.0312 99.2754 29.4483 106.007 29.4483H115.208C121.94 29.4483 125.306 33.0312 125.306 40.197ZM114.394 62.3457V37.8355C114.394 37.4012 114.231 37.0212 113.905 36.6955C113.634 36.3698 113.281 36.2069 112.847 36.2069H108.368C107.934 36.2069 107.554 36.3698 107.228 36.6955C106.957 37.0212 106.821 37.4012 106.821 37.8355V62.3457C106.821 62.78 106.957 63.16 107.228 63.4857C107.554 63.8114 107.934 63.9742 108.368 63.9742H112.847C113.281 63.9742 113.634 63.8114 113.905 63.4857C114.231 63.16 114.394 62.78 114.394 62.3457ZM147.222 63.73H150.479V70.8143H142.825C136.093 70.8143 132.728 67.2314 132.728 60.0657V21.6311H143.639V30.2626H150.479V38.1612H143.639V59.8214C143.639 61.3414 143.938 62.3728 144.535 62.9157C145.132 63.4585 146.028 63.73 147.222 63.73ZM174.508 30.2626H185.094L176.381 70H161.968L153.255 30.2626H163.841L169.215 61.1242L174.508 30.2626ZM209.122 29.4483C215.854 29.4483 219.219 33.0312 219.219 40.197V53.0628H200.735V61.3685C200.735 61.8028 200.871 62.1828 201.142 62.5085C201.468 62.8342 201.848 62.9971 202.282 62.9971H206.761C207.195 62.9971 207.548 62.8342 207.819 62.5085C208.145 62.1828 208.308 61.8028 208.308 61.3685V56.9713H219.219V60.0657C219.219 67.2314 215.854 70.8143 209.122 70.8143H199.921C193.189 70.8143 189.823 67.2314 189.823 60.0657V40.197C189.823 33.0312 193.189 29.4483 199.921 29.4483H209.122ZM200.735 45.897H208.308V38.5684C208.308 38.1341 208.145 37.7541 207.819 37.4284C207.548 37.1027 207.195 36.9398 206.761 36.9398H202.282C201.848 36.9398 201.468 37.1027 201.142 37.4284C200.871 37.7541 200.735 38.1341 200.735 38.5684V45.897ZM239.705 63.73H242.962V70.8143H235.307C228.576 70.8143 225.21 67.2314 225.21 60.0657V21.6311H236.122V30.2626H242.962V38.1612H236.122V59.8214C236.122 61.3414 236.42 62.3728 237.017 62.9157C237.614 63.4585 238.51 63.73 239.705 63.73ZM249.809 64.9514C249.809 63.3228 250.379 61.9385 251.519 60.7985C252.659 59.6585 254.043 59.0885 255.672 59.0885C257.3 59.0885 258.684 59.6585 259.824 60.7985C260.964 61.9385 261.534 63.3228 261.534 64.9514C261.534 66.58 260.964 67.9643 259.824 69.1043C258.684 70.2443 257.3 70.8143 255.672 70.8143C254.043 70.8143 252.659 70.2443 251.519 69.1043C250.379 67.9643 249.809 66.58 249.809 64.9514Z" fill="#CCDCF2"/>
<path d="M287.651 30.2626H296.853V70H287.651V67.0686C285.968 69.5657 283.173 70.8143 279.264 70.8143H277.554C270.823 70.8143 267.457 67.2314 267.457 60.0657V40.197C267.457 33.0312 270.823 29.4483 277.554 29.4483H279.264C283.173 29.4483 285.968 30.6969 287.651 33.1941V30.2626ZM285.941 61.3685V38.8941C285.941 38.4598 285.778 38.0798 285.453 37.7541C285.181 37.4284 284.828 37.2655 284.394 37.2655H279.915C279.481 37.2655 279.101 37.4284 278.775 37.7541C278.504 38.0798 278.368 38.4598 278.368 38.8941V61.3685C278.368 61.8028 278.504 62.1828 278.775 62.5085C279.101 62.8342 279.481 62.9971 279.915 62.9971H284.394C284.828 62.9971 285.181 62.8342 285.453 62.5085C285.778 62.1828 285.941 61.8028 285.941 61.3685ZM315.349 25.2954C314.209 26.4354 312.825 27.0055 311.196 27.0055C309.568 27.0055 308.156 26.4354 306.962 25.2954C305.768 24.1011 305.171 22.6897 305.171 21.0611C305.171 19.3783 305.768 17.9668 306.962 16.8268C308.156 15.6325 309.568 15.0354 311.196 15.0354C312.825 15.0354 314.209 15.6325 315.349 16.8268C316.543 17.9668 317.141 19.3783 317.141 21.0611C317.141 22.744 316.543 24.1554 315.349 25.2954ZM305.741 70V30.2626H316.652V70H305.741Z" fill="#FFFFFF"/>
<path d="M37.3866 10.5952C57.3833 10.5952 75.245 26.8093 75.245 46.8104C75.245 61.2409 68.3717 75.7111 37.5046 95.9693V82.7897C59.2053 60.5174 59.2053 55.1727 59.2053 44.0972C59.2053 33.0217 48.5777 24.0432 37.5046 24.0432C26.4315 24.0432 16.2756 33.0217 16.2756 44.0972C16.2756 55.094 26.3043 65.4702 37.2687 65.5966V83.0247C17.3262 82.9611 0 66.7722 0 46.8104C0 26.8093 17.3899 10.5952 37.3866 10.5952Z" fill="#616AFF"/>
</svg>
