<svg width="340" height="432" viewBox="0 0 340 432" fill="none" xmlns="http://www.w3.org/2000/svg">
<path d="M0 44C0 23.2582 0 12.8873 6.44365 6.44365C12.8873 0 23.2582 0 44 0L255.203 0C265.02 0 269.929 0 274.138 1.8372C276.126 2.70522 277.975 3.86264 279.625 5.27187C283.117 8.25457 285.263 12.6697 289.553 21.5L293.27 29.1502C293.957 30.563 294.3 31.2695 294.661 31.9016C298.319 38.3139 304.95 42.464 312.316 42.9519C313.042 43 313.827 43 315.398 43C317.814 43 319.022 43 320.04 43.0948C330.578 44.0764 338.924 52.4219 339.905 62.9595C340 63.9776 340 65.1856 340 67.6018V388C340 408.742 340 419.113 333.556 425.556C327.113 432 316.742 432 296 432H44C23.2582 432 12.8873 432 6.44365 425.556C0 419.113 0 408.742 0 388V44Z" fill="#6069FF"/>
</svg>
