<svg width="467" height="279" viewBox="0 0 467 279" fill="none" xmlns="http://www.w3.org/2000/svg">
<path d="M0 24C0 12.6863 0 7.02944 3.51472 3.51472C7.02944 0 12.6863 0 24 0L316.736 0C322.639 0 325.59 0 328.128 1.27232C330.667 2.54464 332.433 4.90941 335.965 9.63895L344.346 20.861C347.878 25.5906 349.644 27.9554 352.182 29.2277C354.721 30.5 357.672 30.5 363.575 30.5H443C454.314 30.5 459.971 30.5 463.485 34.0147C467 37.5294 467 43.1863 467 54.5L467 255C467 266.314 467 271.971 463.485 275.485C459.971 279 454.314 279 443 279H24C12.6863 279 7.02944 279 3.51472 275.485C0 271.971 0 266.314 0 255V24Z" fill="#332E71"/>
</svg>
