<svg width="33" height="35" viewBox="0 0 33 35" fill="none" xmlns="http://www.w3.org/2000/svg">
  <path fill-rule="evenodd" clip-rule="evenodd" d="M16.9632 0.0703718C15.4535 0.329222 14.095 1.18215 13.2743 2.38637C12.5478 3.45241 12.331 4.3115 12.3458 6.06472C12.3727 9.26657 13.6201 11.8445 15.5894 12.7687C18.2621 14.0233 21.2713 13.0347 22.4793 10.5053C23.1111 9.18243 23.286 8.25244 23.2891 6.19849C23.2916 4.53771 23.2561 4.22909 22.9762 3.47288C22.1252 1.17306 19.4294 -0.35235 16.9632 0.0703718ZM7.44687 7.39121C7.26092 7.6209 7.05684 9.04384 7.05058 10.1559C7.04562 11.0079 6.98311 11.1265 6.65116 10.9141C6.46234 10.7932 6.13013 10.8625 5.00155 11.258C3.09645 11.9258 3.07596 11.9549 3.18048 13.8235C3.22576 14.6329 3.32153 15.6638 3.3933 16.1148C3.50983 16.8472 3.44758 17.4164 2.80846 21.4657C2.41505 23.9577 2.03324 26.323 1.96004 26.7215C1.78297 27.6844 1.77997 27.669 2.14689 27.669C2.48746 27.669 2.6126 27.5263 3.33641 26.3125C3.85783 25.4381 4.47295 25.0544 5.146 25.1838C5.66207 25.283 6.04388 25.6841 6.65677 26.7707L7.1243 27.5997L8.35753 27.8816C9.0358 28.0366 9.67883 28.1876 9.78649 28.2172C9.92415 28.2551 9.99187 28.1519 10.0148 27.8697C10.0328 27.6489 10.1761 26.4258 10.3331 25.1518C10.6224 22.8056 10.7925 22.2326 11.106 22.5495C11.2359 22.6807 11.1968 23.2475 10.9121 25.3587C10.7158 26.8133 10.5378 28.136 10.5164 28.2981C10.4546 28.7659 11.071 28.836 11.6577 28.4279C11.9151 28.2488 12.5234 28.0266 13.0111 27.9335C14.3056 27.6864 14.3303 27.6699 14.9309 26.6577C16.1354 24.6278 17.2199 24.6061 18.3442 26.5898L18.9416 27.6438L20.0376 27.8523C21.1721 28.068 21.7531 28.3028 22.045 28.6635C22.2622 28.9317 22.6252 28.9317 22.8423 28.6635C23.0945 28.3519 23.5943 28.1218 24.4336 27.9309C25.3081 27.7319 25.2566 27.9736 24.9893 25.328C24.7316 22.7767 24.7351 22.5856 25.0394 22.5856C25.3741 22.5856 25.3967 22.677 25.5703 24.7355C25.6535 25.7235 25.7525 26.7409 25.7903 26.9963L25.859 27.4606L26.2787 26.7016C26.8394 25.6872 27.0934 25.4203 27.6656 25.2445C28.3807 25.0248 28.9754 25.3599 29.5541 26.3084C29.8059 26.7211 30.0119 26.9587 30.0119 26.8365C30.0119 26.2697 28.546 19.8347 28.2361 19.0411C27.7832 17.8814 27.0855 16.9893 26.2828 16.5437C25.9296 16.3476 24.9066 15.9627 24.0095 15.6885C23.1124 15.4142 22.1595 15.0774 21.8918 14.9401C21.4127 14.6944 21.0083 14.1178 21.0083 13.6808C21.0083 13.4365 20.9431 13.4433 19.7035 13.8172C18.6926 14.1221 17.0739 14.0919 15.9873 13.7478C15.5054 13.5952 15.0938 13.4896 15.0722 13.5132C15.0508 13.5367 14.9437 13.7778 14.8342 14.0488C14.5825 14.6715 14.2434 14.8482 12.4588 15.2855C10.9524 15.6549 9.79223 16.2187 9.47723 16.7346C9.3628 16.9221 9.26623 17.6092 9.21913 18.5725C9.13262 20.3375 8.9408 22.7094 8.72406 24.6923C8.565 26.1471 8.3313 26.6471 8.10086 26.0257C8.03261 25.8417 8.00065 25.5793 8.02975 25.4426C8.05884 25.306 8.17458 23.8398 8.28706 22.1843C8.39941 20.5289 8.52572 18.7983 8.56774 18.3386L8.64408 17.5028L8.00822 17.8003C6.81701 18.3575 4.47751 18.116 4.21275 17.4085C4.09531 17.0949 4.24916 17.0765 5.03299 17.3102C6.05248 17.614 7.08189 17.5104 7.97599 17.0141C8.84255 16.5332 9.24575 15.7775 9.35615 14.4278C9.42282 13.6124 9.39151 13.4155 9.09661 12.7927C8.79779 12.1615 8.75447 11.8777 8.69914 10.1818C8.65073 8.69937 8.58379 8.16763 8.39615 7.77393C8.134 7.22386 7.71802 7.05611 7.44687 7.39121ZM7.49149 13.1267L7.70666 13.634L6.83149 14.4965C6.35013 14.971 5.93022 15.3325 5.89838 15.3C5.81135 15.2108 5.98216 14.6536 6.1664 14.4254C6.25566 14.315 6.57717 14.0588 6.88108 13.8563L7.43356 13.4882L7.17467 12.8148C7.03231 12.4445 6.9197 12.0082 6.92453 11.8454C6.9304 11.6476 6.99016 11.7269 7.10473 12.0845C7.19907 12.3788 7.37314 12.8478 7.49149 13.1267ZM6.1878 13.8904C6.28762 14.0687 6.27822 14.0687 6.10311 13.8904C5.82178 13.6039 5.60909 12.87 5.62227 12.2318C5.63218 11.7497 5.66037 11.8048 5.85467 12.6865C5.97615 13.2383 6.12608 13.7801 6.1878 13.8904ZM4.46238 26.1405C4.3011 26.2564 3.97005 26.7564 3.72669 27.2519C3.48334 27.7473 3.19496 28.2284 3.08601 28.3211C2.97705 28.414 2.34119 28.58 1.67297 28.6902C0.351007 28.9084 0 29.1165 0 29.6819C0 29.9568 0.191035 30.2294 0.766481 30.7756C1.8383 31.7929 1.87104 31.8779 1.6804 33.1541C1.39412 35.0716 1.83098 35.3787 3.60377 34.5066C4.21915 34.2039 4.79942 33.9563 4.89324 33.9563C4.98706 33.9563 5.56016 34.2004 6.16666 34.4988C7.87446 35.3388 8.38702 35.0455 8.10569 33.3891C7.85464 31.9112 7.86847 31.8629 8.80784 30.9416C9.4694 30.2927 9.65561 30.0253 9.65404 29.7255C9.65039 29.036 9.36358 28.8442 8.09016 28.6796C6.70283 28.5004 6.60027 28.4303 6.00329 27.2538C5.63271 26.5235 5.3566 26.1426 5.13543 26.0564C4.73601 25.9007 4.80895 25.8916 4.46238 26.1405ZM27.5197 26.2107C27.3692 26.3651 27.0669 26.8836 26.8481 27.3628C26.3973 28.3507 26.1444 28.5175 24.8577 28.6754C24.4271 28.7282 23.884 28.8514 23.6507 28.9492C23.2879 29.1012 23.2266 29.1935 23.2266 29.5874C23.2266 29.9776 23.3439 30.1594 23.9931 30.7756C25.0649 31.7929 25.0976 31.8779 24.907 33.1541C24.6207 35.0716 25.0576 35.3787 26.8304 34.5066C27.4457 34.2039 28.0307 33.9563 28.1304 33.9563C28.2301 33.9563 28.8135 34.2114 29.4268 34.5232C30.4926 35.0651 30.5575 35.0811 30.8967 34.8844C31.2494 34.68 31.2515 34.6699 31.2515 33.1957V31.7127L32.1323 30.86C33.0671 29.9552 33.1822 29.6518 32.7828 29.1461C32.6032 28.9188 32.294 28.8146 31.38 28.6735C30.7352 28.5738 30.1045 28.451 29.9785 28.4005C29.8524 28.3499 29.5057 27.8286 29.208 27.2419C28.8478 26.5322 28.5613 26.1341 28.3521 26.0525C27.9079 25.8794 27.8281 25.8946 27.5197 26.2107ZM15.9449 26.4316C15.8057 26.634 15.5421 27.1042 15.359 27.4768C14.9244 28.3614 14.7948 28.4572 13.8115 28.6211C12.3991 28.8562 12.0576 28.9821 11.906 29.3231C11.7134 29.7565 11.9019 30.095 12.8617 31.0389C13.6244 31.7889 13.6351 31.8098 13.5853 32.4435C13.5577 32.7973 13.5283 33.4453 13.5201 33.8834C13.5065 34.6142 13.5341 34.6967 13.853 34.8809C14.1819 35.071 14.2626 35.0516 15.3556 34.5191C15.991 34.2095 16.6138 33.9563 16.7399 33.9563C16.8659 33.9563 17.4361 34.1971 18.0071 34.4914C19.2021 35.1074 19.3432 35.1283 19.7174 34.7446C19.9693 34.4864 19.9841 34.3764 19.8932 33.4403C19.741 31.8732 19.7508 31.8416 20.6832 30.8785C22.0323 29.4847 21.8343 28.9717 19.8292 28.6645C19.1709 28.5638 18.5457 28.4074 18.4396 28.3173C18.3336 28.227 18.0689 27.7885 17.8513 27.3426C17.3234 26.2604 17.135 26.0637 16.6257 26.0637C16.3076 26.0637 16.1333 26.1579 15.9449 26.4316Z" fill="#6069FF"/>
</svg>
