<svg width="26" height="36" viewBox="0 0 26 36" fill="none" xmlns="http://www.w3.org/2000/svg">
<path fill-rule="evenodd" clip-rule="evenodd" d="M12.5891 0.11664C12.3991 0.257905 12.369 0.478952 12.4015 1.4935C12.4395 2.68228 12.4456 2.70192 12.7709 2.70192C13.0967 2.70192 13.1021 2.68362 13.1394 1.47789C13.1806 0.140455 13.0365 -0.216072 12.5891 0.11664ZM6.57964 2.12341C6.30434 2.40338 6.39906 2.59738 7.25551 3.5078C8.08432 4.38875 8.40818 4.51697 8.58968 4.03586C8.67236 3.81683 7.16489 1.96196 6.90415 1.96196C6.813 1.96196 6.66695 2.03461 6.57964 2.12341ZM17.7575 2.85193C16.9801 3.74593 16.8556 4.15022 17.3362 4.22018C17.736 4.27843 19.1578 2.77013 19.0993 2.34983C19.015 1.74374 18.5794 1.90666 17.7575 2.85193ZM11.6464 4.54105C10.6028 4.74205 9.1547 5.5151 8.60212 6.16626C7.53598 7.42258 6.99107 9.12031 7.11185 10.81C7.19586 11.9857 7.59221 12.8976 8.64207 14.3296C9.57922 15.608 9.80001 16.0575 9.93283 16.9578L10.0228 17.5683H10.9008H11.7788L11.6952 16.2566C11.6232 15.128 11.5172 14.6867 10.9345 13.0956C10.1321 10.9044 10.0839 10.4014 10.6476 10.105C11.1076 9.86309 11.4956 9.84412 11.8655 10.0455C12.0623 10.1526 12.2392 10.1467 12.5318 10.0235C12.8509 9.88906 13.0224 9.88946 13.3929 10.0257C13.7295 10.1495 13.8951 10.1556 14.001 10.0478C14.2345 9.81035 14.8649 9.87668 15.1521 10.1688C15.5413 10.5646 15.4831 11.0429 14.8131 12.954C14.3089 14.3916 14.1966 14.8922 14.1323 15.9875C14.075 16.9626 14.0094 17.2993 13.8762 17.2993C13.7375 17.2993 13.6969 16.999 13.6969 15.9737C13.6969 14.753 13.744 14.5089 14.2922 12.8887C14.9488 10.9484 14.9727 10.8117 14.698 10.5799C14.549 10.4541 14.4343 10.4692 14.1627 10.6501C13.859 10.8525 13.7531 10.8589 13.29 10.7035C12.8875 10.5685 12.7263 10.5639 12.6082 10.684C12.3957 10.9001 11.9475 10.8815 11.6386 10.6439C11.2911 10.3765 11.0859 10.3894 10.9285 10.6886C10.8279 10.8797 10.9525 11.3994 11.453 12.8742C12.0741 14.7051 12.1094 14.8835 12.1094 16.1927V17.5761L13.8473 17.5386L15.5854 17.5011L15.7704 16.7611C16.0061 15.8199 16.279 15.2899 17.0875 14.2033C17.9994 12.9778 18.3561 12.0735 18.4321 10.7931C18.5433 8.92482 18.0797 7.56949 16.8687 6.22196C16.103 5.36994 14.9717 4.7329 13.8443 4.51885C13.0138 4.36131 12.5564 4.36588 11.6464 4.54105ZM13.1677 5.45819C13.5513 5.70682 13.1386 6.0581 12.3601 6.14555C11.0659 6.29112 9.91788 7.08946 9.27468 8.29129C8.98655 8.82984 8.8819 9.24489 8.81549 10.1135C8.76813 10.7321 8.66177 11.3071 8.57896 11.3913C8.15364 11.8238 7.90348 10.8036 8.13724 9.59038C8.464 7.89494 9.28393 6.70226 10.6386 5.95248C11.5686 5.43761 12.773 5.2023 13.1677 5.45819ZM3.42767 7.00269C3.2844 7.38262 3.46868 7.52913 4.55942 7.9018C5.67781 8.28402 6.15631 8.26129 6.15631 7.82606C6.15631 7.54339 5.89754 7.39325 4.88525 7.08839C3.77202 6.75325 3.52729 6.73886 3.42767 7.00269ZM20.6451 7.13991C19.6128 7.48406 19.3354 7.75381 19.6668 8.09096C19.8597 8.28712 19.9737 8.27555 21.0079 7.95481C22.196 7.58618 22.4862 7.38491 22.3501 7.02421C22.2398 6.73173 21.7746 6.76334 20.6451 7.13991ZM22.5611 10.6376C22.4063 11.1147 21.9002 11.504 21.4095 11.5237C21.2785 11.5288 21.4289 11.6495 21.7438 11.7916C22.1948 11.9952 22.3613 12.1666 22.5284 12.5993L22.7406 13.1486L22.9482 12.5779C23.1272 12.0858 23.2375 11.9795 23.7496 11.8061L24.3433 11.6048L23.8157 11.4575C23.3882 11.338 23.2338 11.2009 23.002 10.735L22.7161 10.16L22.5611 10.6376ZM2.71674 10.5467C2.71674 10.9354 2.42253 11.2408 1.85513 11.4411C1.41434 11.5969 1.37107 11.6421 1.59226 11.7162C2.45123 12.0047 2.4765 12.0302 2.78897 12.9268C2.86914 13.1564 2.90142 13.1268 3.01016 12.725C3.18188 12.0897 3.31906 11.9465 3.93646 11.7585L4.46325 11.598L3.86251 11.4198C3.36166 11.2713 3.23413 11.1637 3.09496 10.7724C2.91584 10.2687 2.71674 10.1498 2.71674 10.5467ZM4.84239 13.6085C3.69146 13.9814 3.38071 14.2201 3.63722 14.5345C3.86635 14.8153 4.07894 14.7983 5.16413 14.4132C6.13237 14.0695 6.38663 13.8513 6.24773 13.4832C6.14388 13.2082 6.05206 13.2164 4.84239 13.6085ZM19.4333 13.4649C19.2824 13.8649 19.5197 14.0543 20.6347 14.4237C21.6903 14.7732 21.7834 14.7837 21.9876 14.5759C22.3173 14.2408 22.0473 14.0082 20.8634 13.6071C19.6824 13.2072 19.536 13.1926 19.4333 13.4649ZM6.81539 18.3998C5.97653 19.2904 5.83339 19.7509 6.37103 19.829C6.73602 19.882 8.16304 18.3041 8.11013 17.906C8.04001 17.3781 7.63057 17.5343 6.81539 18.3998ZM17.6216 17.6581C17.3732 17.9107 17.5946 18.3784 18.2979 19.0861C19.0772 19.8704 19.4262 20.023 19.57 19.6421C19.6762 19.3604 19.5816 19.2083 18.7465 18.3191C18.0764 17.6057 17.8207 17.4555 17.6216 17.6581ZM9.99276 18.5171V18.9331L11.4918 18.8393C13.1171 18.7375 13.74 18.8729 13.4247 19.2595C13.304 19.4073 12.8889 19.4519 11.6303 19.4519H9.99276V19.7735C9.99276 20.0867 10.0317 20.0982 11.481 20.2108C12.3092 20.2751 12.9693 20.3861 12.9693 20.4609C12.9693 20.5393 12.404 20.6114 11.6133 20.6338C10.8564 20.6552 10.2573 20.7294 10.2573 20.8019C10.2573 20.8734 10.3318 20.9306 10.4227 20.9291C10.5137 20.9276 10.8606 21.2396 11.1936 21.6225C11.7614 22.2751 11.8447 22.3222 12.5313 22.3802C13.4147 22.4547 14.0399 22.1954 14.4245 21.5949C14.57 21.3677 14.8554 21.0924 15.0586 20.983C15.551 20.7183 15.6588 20.374 15.6244 19.1778L15.5954 18.1738L12.7942 18.1374L9.99276 18.1011V18.5171ZM13.6969 21.4001C13.6969 21.6698 13.1505 21.7904 12.3598 21.6951C11.0068 21.5321 11.1989 21.2009 12.6464 21.2009C13.486 21.2009 13.6969 21.2408 13.6969 21.4001ZM0.0525191 22.8701C-0.0653524 23.1331 0.000276612 23.543 0.402707 25.0563C0.939015 27.0728 1.19803 27.7012 1.67864 28.1515C1.84943 28.3114 3.14999 29.0853 4.56882 29.871C5.98764 30.6568 7.21464 31.3886 7.29534 31.4973C7.41532 31.6586 7.897 31.6948 9.9274 31.6948H12.4126L12.3208 30.0128C12.1757 27.3581 11.8679 26.65 10.5472 25.9342C9.74882 25.5015 8.63134 25.2701 7.2493 25.2512C6.86803 25.2461 6.33994 25.1499 6.07549 25.0376C5.34008 24.7251 4.74741 24.7708 4.49711 25.1595C4.30635 25.4555 4.30595 25.5229 4.49327 25.8912C4.78074 26.4567 5.13225 26.6748 6.38346 27.0645C7.43888 27.3934 8.0908 27.8781 7.97055 28.2448C7.88112 28.5178 7.65385 28.4655 7.50727 28.1383C7.35884 27.8071 7.12309 27.7086 5.40264 27.2591C4.7736 27.0947 4.18451 26.5592 3.85444 25.8518C3.73128 25.5877 3.57359 25.3715 3.50427 25.3715C3.43495 25.3715 3.37819 25.311 3.37819 25.237C3.37819 25.163 3.46749 25.1024 3.57663 25.1024C3.97364 25.1024 3.77758 24.608 3.27898 24.3515C3.00619 24.2111 2.64887 23.9791 2.48523 23.8359C2.11905 23.5157 2.11865 23.5516 2.47333 24.7392C2.63049 25.2654 2.8956 25.8347 3.06255 26.0045C3.40479 26.3526 3.19285 26.4221 2.75047 26.1069C2.49634 25.9258 1.81134 24.1614 1.73395 23.488C1.63804 22.6539 0.359699 22.1841 0.0525191 22.8701ZM24.6288 22.8251C24.4371 22.9784 24.2802 23.1931 24.2802 23.3021C24.2802 23.411 24.1249 23.9969 23.9351 24.6041C23.5744 25.7579 23.2479 26.2237 22.6927 26.3769C22.3871 26.4611 22.3945 26.4411 22.7907 26.1128C23.0999 25.8565 23.2772 25.5443 23.4263 24.9927C23.5399 24.5721 23.6858 24.0965 23.7505 23.9359C23.8541 23.6788 23.7758 23.7023 23.0959 24.133C22.3858 24.583 22.3189 24.6676 22.2612 25.1877C22.1641 26.0641 21.7177 26.6702 20.8367 27.1225C20.4133 27.3398 19.8094 27.5594 19.4947 27.6105C19.1095 27.6729 18.8037 27.8324 18.5595 28.0979C18.2476 28.437 18.1845 28.4605 18.1109 28.2657C17.9704 27.8933 18.5696 27.4497 19.7373 27.0616C20.9041 26.6738 21.4393 26.2786 21.5824 25.6984C21.7849 24.8775 21.1985 24.6626 19.9358 25.0952C19.3914 25.2817 18.7884 25.3715 18.0806 25.3715C16.8009 25.3715 15.5454 25.7377 14.8664 26.3091C14.0815 26.9696 13.8602 27.6102 13.6886 29.7188C13.6054 30.7409 13.5646 31.6052 13.5982 31.6392C13.6317 31.6733 14.7727 31.715 16.1339 31.7317C18.3017 31.7583 18.6236 31.7349 18.7299 31.5432C18.7966 31.4228 19.8495 30.7766 21.0696 30.1071C23.4731 28.7886 24.2888 28.2447 24.6095 27.7471C24.7935 27.4614 26 23.4297 26 23.1005C26 22.8624 25.5898 22.5462 25.2807 22.5462C25.1139 22.5462 24.8205 22.6718 24.6288 22.8251ZM7.18977 33.194C7.17615 33.8863 7.15273 34.7384 7.13792 35.0874C7.12165 35.468 7.17814 35.7788 7.27907 35.864C7.38769 35.9556 8.33343 35.993 9.94381 35.9695L12.4401 35.9327L12.4769 34.0912L12.5137 32.2496L10.0957 32.2046C8.76575 32.1798 7.57355 32.109 7.44615 32.0473C7.23515 31.945 7.21239 32.0465 7.18977 33.194ZM15.9789 32.2008L13.4323 32.2387V34.1194V36H16.0161C18.3537 36 18.6087 35.9775 18.6918 35.7646C18.8387 35.3884 18.8084 32.1922 18.6578 32.1764C18.5851 32.1689 17.3796 32.1798 15.9789 32.2008Z" fill="#6069FF"/>
</svg>
