<svg width="33" height="35" viewBox="0 0 33 35" fill="none" xmlns="http://www.w3.org/2000/svg">
<path fill-rule="evenodd" clip-rule="evenodd" d="M13.928 0.237178C12.9103 0.498697 11.7552 1.11812 11.7552 1.40233C11.7552 1.53716 11.9116 1.59884 12.2644 1.60284L12.7737 1.60872L12.2305 1.88852C11.0528 2.495 10.4871 3.17396 10.2487 4.26689C10.0566 5.14743 10.1704 5.64817 10.5366 5.5339C10.7915 5.45447 10.7993 5.50106 10.7178 6.62977C10.6676 7.32555 10.694 8.09008 10.7823 8.49511C10.9071 9.06687 10.8957 9.25337 10.7139 9.61154C9.99683 11.0245 10.7094 12.9054 12.0624 13.1713C12.3824 13.2344 12.525 13.38 12.7418 13.8651C13.3777 15.289 14.3325 16.3323 15.564 16.9487C17.1435 17.7396 18.5491 17.7099 20.2165 16.8505C21.3199 16.2817 22.0914 15.4633 22.755 14.1576C23.1138 13.4517 23.3003 13.221 23.5158 13.2167C23.9608 13.2079 24.6894 12.6556 25.0253 12.0724C25.4439 11.3461 25.4238 10.6042 24.9618 9.72047C24.6239 9.07408 24.5962 8.91682 24.6716 8.07153C24.7173 7.55757 24.7452 6.50629 24.7334 5.73535C24.7006 3.59407 24.2042 2.74103 22.8899 2.56775C22.4715 2.51262 22.2896 2.40903 22.1494 2.1459C21.9067 1.69095 21.1709 1.01559 20.6213 0.743394C19.1722 0.0258527 15.7561 -0.232461 13.928 0.237178ZM14.1135 6.24477C13.5832 6.7355 13.0555 7.20914 12.9407 7.29712C12.754 7.44036 12.4719 8.49057 12.5905 8.60097C12.6166 8.62527 13.0294 8.55051 13.5078 8.4349C14.6513 8.15856 16.1228 8.34092 16.9164 8.85715C17.5859 9.29275 18.1216 9.29956 18.7497 8.88051C19.6597 8.27351 21.2677 8.13947 22.6014 8.55932C22.9624 8.67306 23.0837 8.66492 23.1765 8.52101C23.2707 8.37496 23.2944 8.38191 23.2962 8.55625C23.2973 8.67613 23.5121 8.93445 23.7735 9.13042C24.3933 9.59512 24.4198 10.0219 23.8258 9.97438C23.4328 9.94287 23.3896 9.98319 23.2192 10.5412C22.9276 11.4957 22.7537 11.7194 22.027 12.0755C21.2141 12.4737 20.1167 12.5223 19.4077 12.1915C18.9013 11.9553 18.4783 11.2877 18.2998 10.4432C18.2064 10.0011 18.146 9.94047 17.7987 9.94047C17.4498 9.94047 17.3765 10.0154 17.1702 10.5822C16.6471 12.0194 16.1975 12.3434 14.7254 12.3434C13.8809 12.3434 13.6027 12.2899 13.2934 12.0677C12.8322 11.7368 12.4331 10.9899 12.3357 10.2759C12.2684 9.78255 12.2427 9.75785 11.874 9.83033C11.5454 9.89495 11.4836 9.86371 11.4836 9.6329C11.4836 9.32212 11.7708 8.99478 12.1464 8.87757C12.3364 8.8183 12.4167 8.63101 12.4653 8.13414C12.5269 7.50363 12.5906 7.41192 13.7201 6.32874C14.3745 5.70117 14.9477 5.22486 14.9937 5.27011C15.0399 5.3155 14.6438 5.75404 14.1135 6.24477ZM17.4588 5.33486C17.4588 5.40828 17.2908 5.47035 17.0853 5.47276C16.8799 5.47516 16.3758 5.59811 15.965 5.74602C14.81 6.16186 14.6161 6.18055 15.3159 5.80823C15.6684 5.6208 16.2795 5.41456 16.6739 5.34994C17.0682 5.28533 17.4061 5.22552 17.4248 5.21698C17.4436 5.20844 17.4588 5.26144 17.4588 5.33486ZM20.38 5.59344C20.7575 5.70411 20.7621 5.71279 20.4464 5.71759C20.2597 5.72053 19.7097 5.63803 19.2242 5.5343L18.3415 5.34567L19.1578 5.41001C19.6069 5.44539 20.1569 5.52789 20.38 5.59344ZM22.0017 6.21633C22.0603 6.52311 22.287 6.88381 22.628 7.21221C22.9601 7.53233 23.1578 7.84285 23.1502 8.03281C23.1402 8.28191 23.1152 8.26109 23.0148 7.92107C22.9324 7.64153 22.7552 7.44796 22.4784 7.33529C21.9452 7.1181 21.6686 6.72108 21.6686 6.17281C21.6686 5.5869 21.8871 5.61533 22.0017 6.21633ZM14.013 9.0606C13.1732 9.18088 12.9338 9.46936 13.0198 10.2571C13.1111 11.0932 13.6806 11.6251 14.5752 11.7096C15.7534 11.8208 16.644 11.1122 16.644 10.0634C16.644 9.66707 16.0875 9.07275 15.7165 9.07275C15.5731 9.07275 15.28 9.04872 15.0653 9.01921C14.8506 8.98985 14.3771 9.0084 14.013 9.0606ZM19.4636 9.28167C19.0028 9.52743 18.8691 10.0075 19.0739 10.6796C19.3178 11.4801 19.8057 11.7804 20.7537 11.7137C21.7087 11.6465 22.2072 11.3195 22.4705 10.5873C22.731 9.86331 22.5917 9.40288 22.0566 9.21959C21.4406 9.00854 19.9069 9.04525 19.4636 9.28167ZM19.9283 13.8119C20.2604 14.1055 20.6504 14.4174 20.7949 14.5048C21.0274 14.6457 20.998 14.6648 20.5392 14.6717C20.1744 14.6773 19.8758 14.5708 19.5312 14.3125C19.1133 13.999 18.8867 13.9384 17.9831 13.8981C16.9779 13.8531 16.8803 13.875 16.0492 14.332C15.5678 14.5965 15.05 14.8131 14.8985 14.8131C14.4323 14.8131 14.4368 14.565 14.9071 14.3462C15.1528 14.232 15.6589 13.9245 16.0318 13.6633L16.7097 13.1882L18.0171 13.233L19.3246 13.2779L19.9283 13.8119ZM4.09942 14.1272C3.72868 14.5298 3.59247 15.2169 3.68387 16.2209C3.78151 17.2914 3.71931 17.3921 2.86662 17.5435C2.04964 17.6884 1.35706 18.0899 1.174 18.5241C1.05178 18.8142 1.04458 19.2616 1.14548 20.3C1.37634 22.678 1.55995 23.3499 2.15394 23.9909C2.43722 24.2966 2.30223 24.4236 2.0047 24.1311C1.9023 24.0304 1.79569 24.018 1.71802 24.0977C1.64985 24.1675 1.21039 25.6563 0.741337 27.4063C0.107013 29.7724 -0.0760447 30.645 0.0268921 30.8104C0.103076 30.9327 0.680095 31.2884 1.30912 31.6007C2.83525 32.3583 4.31507 32.614 6.39105 32.4783C7.21265 32.4247 7.92329 32.3904 7.97028 32.4022C8.01727 32.4141 8.12767 31.6302 8.21566 30.6604C8.46228 27.9408 8.53127 27.5718 8.80247 27.5204C9.00766 27.4816 9.03875 27.5881 9.03604 28.3198C9.03441 28.7841 8.97398 29.9105 8.90173 30.823C8.82962 31.7354 8.78983 32.5009 8.81332 32.5241C8.83695 32.5472 9.87651 32.7273 11.1237 32.9243C12.5856 33.1553 13.4379 33.2367 13.5226 33.1534C13.595 33.0823 13.7242 32.6814 13.8097 32.2623C13.963 31.5124 13.9573 31.4849 13.4485 30.4993C12.8928 29.4231 12.8007 28.7585 13.021 27.417L13.1326 26.7379L12.4014 25.8818C10.9036 24.1276 9.69644 22.1392 9.23376 20.6641L8.99625 19.9069L8.37265 20.1502L7.74906 20.3935L7.79373 21.342C7.82646 22.0336 7.76304 22.5163 7.56002 23.124C7.40684 23.5824 7.21604 24.6484 7.13619 25.4928C6.93914 27.5749 6.60222 30.0043 6.43749 30.5322C6.36049 30.7789 6.21085 30.9661 6.09066 30.9661C5.91222 30.9661 5.89185 30.8254 5.95948 30.065C6.07708 28.745 6.70067 23.8867 6.80918 23.4459L6.90234 23.0677L5.62813 23.1121C3.92464 23.1715 3.90766 22.9387 5.59933 22.7168C7.0213 22.5305 7.27376 22.4171 7.27376 21.9655C7.27376 21.4119 7.05444 21.3502 5.41424 21.4424C4.35703 21.5018 3.87874 21.484 3.87874 21.3854C3.87874 21.2201 4.25002 21.1388 5.56959 21.0153C6.8874 20.8919 7.13796 20.7786 7.13796 20.306C7.13796 19.6462 6.91606 19.5785 5.10271 19.6855C3.97774 19.752 3.47134 19.7377 3.47134 19.6398C3.47134 19.4772 3.90101 19.3981 5.44045 19.2772C6.65885 19.1815 6.86635 19.0768 6.86635 18.5579C6.86635 18.0192 6.35683 17.6208 5.63545 17.5951C5.11194 17.5766 5.09294 17.5666 5.48948 17.5188L5.9459 17.4639L5.85328 16.4925C5.66995 14.5701 5.36793 13.8786 4.71147 13.8786C4.50071 13.8786 4.2253 13.9905 4.09942 14.1272ZM21.5412 16.801C20.504 17.8101 18.7634 18.385 17.1686 18.2455C16.2442 18.1646 14.8833 17.554 14.1485 16.8904C13.8591 16.6289 13.5993 16.415 13.5714 16.415C13.5434 16.415 13.5206 16.564 13.5206 16.7461C13.5206 16.9282 13.4176 17.33 13.2919 17.6389C13.1201 18.061 13.1044 18.2143 13.2287 18.2551C13.3199 18.2849 13.6011 18.7128 13.8537 19.2059C14.4394 20.3493 15.7942 22.3229 16.4969 23.0565C17.0384 23.6215 17.0445 23.6238 18.0145 23.6238C18.9604 23.6238 19.002 23.6097 19.4586 23.1337C20.1301 22.4338 21.1652 20.9559 22.0137 19.4852L22.7455 18.2167L22.5515 17.6162C22.4447 17.286 22.3093 16.8355 22.2507 16.6153L22.1439 16.2148L21.5412 16.801ZM12.1626 18.552C11.4488 18.8309 11.4487 18.8353 12.1059 20.2532C12.6851 21.5026 13.8677 23.2616 14.5622 23.9068L15.0823 24.3899L15.6764 24.128L16.2704 23.8662L15.5873 23.1777C14.5449 22.1269 12.9601 19.5065 12.8184 18.599C12.7739 18.3145 12.7708 18.3143 12.1626 18.552ZM22.6501 19.8706C22.0112 21.1346 21.3492 22.1161 20.2367 23.4487L19.8813 23.8743L20.4245 24.1322L20.9676 24.3901L21.5006 23.8401C22.709 22.5932 24.8383 18.818 24.3333 18.818C24.305 18.818 24.0759 18.736 23.824 18.6357L23.3661 18.4534L22.6501 19.8706ZM10.0291 19.4263C9.5935 19.6152 9.59323 19.6159 9.77602 20.1249C10.2779 21.5234 11.5896 23.6715 12.8215 25.1124L13.5806 26.0003L13.8002 25.6464C13.9209 25.4518 14.1223 25.2092 14.2477 25.1075C14.4556 24.9387 14.4163 24.8608 13.8024 24.2227C12.9061 23.2911 11.9682 21.8439 11.348 20.4358C11.0694 19.803 10.7566 19.2744 10.6532 19.2612C10.5497 19.2479 10.2688 19.3222 10.0291 19.4263ZM24.9754 19.7251C24.2151 21.5582 23.537 22.6664 22.329 24.0485L21.6663 24.8069L21.9943 25.4133L22.3224 26.0198L22.7792 25.5227C23.6015 24.628 24.4844 23.313 25.3106 21.7529C26.4062 19.6845 26.3971 19.7341 25.7303 19.4581L25.1805 19.2303L24.9754 19.7251ZM26.7391 20.7069C26.1135 22.2573 24.7214 24.4933 23.4381 26.0093C22.8079 26.7536 22.7679 26.8424 22.9079 27.1882C22.9912 27.3937 23.0657 27.9925 23.0736 28.5186C23.0868 29.3864 23.0359 29.5787 22.5259 30.5878L21.9637 31.7003L22.1132 32.6214L22.2629 33.5427L25.0528 33.4515C26.5873 33.4015 27.8839 33.3172 27.9343 33.2646C27.9846 33.2119 27.974 32.4779 27.9106 31.6336C27.7397 29.3585 27.7508 27.5284 27.9361 27.4159C28.2907 27.2004 28.4247 27.8257 28.5934 30.4818C28.7445 32.862 28.7935 33.1959 28.9858 33.1578C29.1067 33.1339 29.8167 33.0187 30.5636 32.9018C32.3484 32.6222 32.8962 32.4725 32.9873 32.2391C33.0844 31.9903 32.6025 27.7228 32.2639 25.8354C31.938 24.0178 31.4384 22.9725 30.4639 22.0695C29.7443 21.4027 28.0286 20.384 27.3426 20.2163C27.0042 20.1337 26.954 20.1745 26.7391 20.7069ZM5.57625 24.6176C5.02449 24.8492 4.15034 24.9713 4.15034 24.8169C4.15034 24.7481 4.34888 24.6858 4.59169 24.6784C4.83451 24.6711 5.18582 24.617 5.37255 24.5583C5.90203 24.3915 6.02765 24.4281 5.57625 24.6176ZM16.399 24.678C15.5016 24.9828 15.0064 25.4424 14.3926 26.54C13.8359 27.5354 13.6416 28.372 13.8028 29.0775C13.9651 29.7873 14.9827 31.4598 15.4523 31.7884C16.0469 32.2047 16.98 32.4346 18.0744 32.4346C19.7507 32.4346 20.8372 31.8779 21.5009 30.6789C21.7051 30.3098 21.9831 29.818 22.1185 29.5859C22.5047 28.9237 22.3592 27.9109 21.6897 26.602C21.0437 25.3387 20.7203 25.0526 19.5307 24.6915C18.4455 24.362 17.3438 24.3572 16.399 24.678ZM18.5027 26.5917C18.895 27.309 19.0585 27.4102 20.073 27.5637C20.3531 27.6061 20.5822 27.716 20.5822 27.8078C20.5822 27.8998 20.3346 28.2125 20.0321 28.5027L19.4818 29.0304L19.5725 29.8648C19.6783 30.8377 19.6425 30.8569 18.6048 30.3819L17.9174 30.0673L17.3147 30.3771C16.3689 30.8633 16.3307 30.8375 16.4383 29.7849L16.5316 28.8709L15.9767 28.4387C15.2428 27.8674 15.2634 27.6662 16.0668 27.5589C17.0697 27.425 17.0955 27.4083 17.5095 26.6284C17.724 26.2241 17.9492 25.8932 18.01 25.8932C18.0708 25.8932 18.2925 26.2076 18.5027 26.5917ZM14.2948 33.2689C13.9826 34.7494 13.9895 34.8375 14.4182 34.8375C14.8339 34.8375 16.1413 34.1793 16.7968 33.64L17.2551 33.263L16.6253 33.1696C16.1413 33.0979 15.9137 33.129 15.6418 33.304C15.143 33.6253 14.8395 33.4874 15.0198 33.0214C15.129 32.7388 15.1101 32.6124 14.9292 32.4159C14.8036 32.2793 14.6616 32.1676 14.6138 32.1676C14.566 32.1676 14.4224 32.6631 14.2948 33.2689ZM21.0642 32.4239C20.9045 32.6779 20.1711 32.986 19.3198 33.1568L18.497 33.3218L19.3699 33.9298C20.5534 34.7544 21.2998 35.1126 21.5358 34.9691C21.6962 34.8718 21.6989 34.6725 21.5531 33.6777C21.3818 32.5084 21.2399 32.1445 21.0642 32.4239Z" fill="#6069FF"/>
</svg>
