<svg width="40" height="40" viewBox="0 0 40 40" fill="none" xmlns="http://www.w3.org/2000/svg">
<circle cx="20" cy="20" r="19.5" fill="#5E68FF" stroke="white"/>
<path d="M20.0014 10C17.1286 10 14.7803 12.2188 14.7803 14.9331C14.7803 17.6474 17.1286 19.8662 20.0014 19.8662C22.8741 19.8662 25.2224 17.6474 25.2224 14.9331C25.2224 12.2188 22.8741 10 20.0014 10Z" fill="white"/>
<path d="M28.9615 23.8084C28.8247 23.4853 28.6424 23.1837 28.4372 22.9036C27.3884 21.4388 25.7697 20.4694 23.9457 20.2324C23.7177 20.2109 23.4669 20.2539 23.2845 20.3832C22.327 21.051 21.187 21.3957 20.0014 21.3957C18.8158 21.3957 17.6759 21.051 16.7183 20.3832C16.5359 20.2539 16.2851 20.1893 16.0571 20.2324C14.2332 20.4694 12.5916 21.4388 11.5657 22.9036C11.3605 23.1837 11.1781 23.5068 11.0413 23.8084C10.9729 23.9377 10.9957 24.0885 11.0641 24.2177C11.2465 24.5193 11.4745 24.8209 11.6797 25.0794C11.9988 25.4887 12.3408 25.8549 12.7284 26.1996C13.0476 26.5011 13.4124 26.7812 13.7772 27.0612C15.5783 28.3322 17.7443 29 19.9786 29C22.213 29 24.3789 28.3322 26.18 27.0612C26.5448 26.8028 26.9096 26.5011 27.2288 26.1996C27.5936 25.8549 27.9584 25.4887 28.2776 25.0794C28.5056 24.7993 28.7108 24.5193 28.8932 24.2177C29.0071 24.0885 29.0299 23.9376 28.9615 23.8084Z" fill="white"/>
</svg>
