<svg width="14" height="12" viewBox="0 0 14 12" fill="none" xmlns="http://www.w3.org/2000/svg">
<path d="M12.356 7.57666C11.7505 8.32181 9.08748 10.5518 7.70239 11.6941C7.20944 12.102 6.50484 12.102 6.01188 11.6941C4.62679 10.5518 1.96645 8.32181 1.3583 7.57666C0.431334 6.44261 0 5.36295 0 4.1881C0 3.04045 0.385789 1.98527 1.08771 1.21292C1.80035 0.432408 2.77286 0 3.8311 0C4.62411 0 5.34747 0.255637 5.98509 0.756034C6.3173 1.01983 6.612 1.32986 6.8558 1.68068C7.10227 1.33258 7.39429 1.01983 7.7265 0.756034C8.36413 0.252918 9.09016 0 9.88317 0C10.9441 0 11.9166 0.432408 12.6266 1.21292C13.3258 1.98527 13.7143 3.03773 13.7143 4.1881C13.717 5.36295 13.2856 6.44261 12.356 7.57666Z" fill="#6069FF"/>
</svg>
