<svg width="20" height="20" viewBox="0 0 20 20" fill="none" xmlns="http://www.w3.org/2000/svg">
<path d="M19.4161 1.70503C19.0161 1.28003 18.4485 1.03501 17.8635 1.03501H16.0007C16.0083 0.699998 16.0132 0.355028 16.0132 0H3.99927C3.99927 0.35498 4.00425 0.699998 4.01177 1.03501H2.13654C1.55146 1.03501 0.98391 1.28003 0.583862 1.70503C0.178783 2.13256 -0.0312036 2.71752 0.00376161 3.31005C0.338812 8.89505 3.22168 12.4 7.79221 12.92L6.90709 16C5.85447 16 5.00188 16.8525 5.00188 17.905V20H15.0131V17.905C15.0131 16.8525 14.1605 16 13.1079 16L12.2228 12.92C16.7833 12.395 19.6637 8.89256 19.9962 3.31005C20.0312 2.72006 19.8212 2.13505 19.4161 1.70503ZM2.00152 3.19003C1.99902 3.13505 2.02154 3.09755 2.04151 3.07753C2.07901 3.03754 2.12404 3.03754 2.13654 3.03754H4.1068C4.40435 6.97005 5.27193 9.20003 6.11457 10.46C2.90665 9.11502 2.14152 5.52255 2.00152 3.19003ZM13.898 10.4525C14.7406 9.19002 15.6057 6.96253 15.9032 3.03505H17.866C17.8809 3.03505 17.9235 3.03505 17.961 3.07504C17.981 3.09506 18.0035 3.13256 18.001 3.18754C17.8585 5.52005 17.0959 9.10252 13.898 10.4525Z" fill="#6069FF"/>
</svg>
