<svg width="16" height="18" viewBox="0 0 16 18" fill="none" xmlns="http://www.w3.org/2000/svg">
<path d="M15.8721 13.0248C15.7185 12.8268 15.4606 12.7536 15.2337 12.8388C14.5975 13.0776 13.9075 13.2 13.1809 13.2C9.70456 13.2 6.87698 10.2384 6.87698 6.6C6.87698 4.41 7.90967 2.3712 9.63923 1.1448C9.83523 1.0056 9.92921 0.7548 9.87649 0.5136C9.82376 0.2724 9.63465 0.09 9.39968 0.054C9.13148 0.0132 8.86443 0 8.59622 0C3.85569 0 0 4.0368 0 9C0 13.9632 3.85569 18 8.59622 18C11.6049 18 14.3419 16.3992 15.9156 13.7184C16.0428 13.5012 16.0245 13.224 15.8721 13.0248Z" fill="#6069FF"/>
</svg>
