<svg width="18" height="18" viewBox="0 0 18 18" fill="none" xmlns="http://www.w3.org/2000/svg">
<path d="M10.1279 15.75C5.78021 15.75 2.25571 12.2242 2.25571 7.87497C2.25571 3.5257 5.78017 0 10.1279 0C14.4755 0 18 3.52574 18 7.875C18 12.2243 14.4755 15.75 10.1279 15.75ZM10.1279 2.25001C7.02237 2.25001 4.50491 4.76839 4.50491 7.875C4.50491 10.9816 7.02237 13.5 10.1279 13.5C13.2333 13.5 15.7508 10.9816 15.7508 7.875C15.7508 4.76839 13.2333 2.25001 10.1279 2.25001Z" fill="#626AFF"/>
<path d="M1.13111 18C0.832183 18.0017 0.54488 17.8843 0.332659 17.6737C-0.108335 17.2362 -0.111242 16.5239 0.326147 16.0827C0.328318 16.0806 0.330488 16.0784 0.332659 16.0762L4.56111 11.8462C5.01761 11.4051 5.74517 11.4177 6.18616 11.8744C6.62716 12.331 6.61456 13.0588 6.15806 13.5L1.92957 17.6737C1.71735 17.8843 1.43005 18.0017 1.13111 18Z" fill="#626AFF"/>
</svg>
