<svg width="22" height="22" viewBox="0 0 22 22" fill="none" xmlns="http://www.w3.org/2000/svg">
<path d="M1.57143 11C1.57143 11.4339 1.21962 11.7857 0.785714 11.7857C0.351804 11.7857 0 11.4339 0 11C0 4.93448 4.93448 0 11 0C14.0232 0 16.8206 1.2047 18.8571 3.27898V0.785714C18.8571 0.351804 19.2089 0 19.6429 0C20.0768 0 20.4286 0.351804 20.4286 0.785714V5.5C20.4286 5.93391 20.0768 6.28571 19.6429 6.28571H14.9286C14.4947 6.28571 14.1429 5.93391 14.1429 5.5C14.1429 5.06609 14.4947 4.71429 14.9286 4.71429H18.0534C16.2904 2.73114 13.7543 1.57143 11 1.57143C5.80113 1.57143 1.57143 5.80113 1.57143 11ZM21.2143 10.2143C20.7804 10.2143 20.4286 10.5661 20.4286 11C20.4286 16.1989 16.1989 20.4286 11 20.4286C8.24568 20.4286 5.70959 19.2689 3.94664 17.2857H7.07143C7.50534 17.2857 7.85714 16.9339 7.85714 16.5C7.85714 16.0661 7.50534 15.7143 7.07143 15.7143H2.35714C1.92323 15.7143 1.57143 16.0661 1.57143 16.5V21.2143C1.57143 21.6482 1.92323 22 2.35714 22C2.79105 22 3.14286 21.6482 3.14286 21.2143V18.721C5.17943 20.7953 7.97677 22 11 22C17.0655 22 22 17.0655 22 11C22 10.5661 21.6482 10.2143 21.2143 10.2143Z" fill="#626AFF"/>
</svg>
